<?xml version="1.0" standalone="no"?>
<!DOCTYPE svg PUBLIC "-//W3C//DTD SVG 20010904//EN"
 "http://www.w3.org/TR/2001/REC-SVG-20010904/DTD/svg10.dtd">
<svg version="1.0" xmlns="http://www.w3.org/2000/svg"
 width="512.000000pt" height="512.000000pt" viewBox="0 0 512.000000 512.000000"
 preserveAspectRatio="xMidYMid meet">
<metadata>
Created by potrace 1.14, written by Peter Selinger 2001-2017
</metadata>
<g transform="translate(0.000000,512.000000) scale(0.100000,-0.100000)"
fill="#000000" stroke="none">
<path d="M595 4340 c-64 -14 -109 -49 -151 -115 -18 -28 -19 -78 -24 -1330
l-5 -1300 -138 -2 c-155 -1 -177 -5 -218 -35 -81 -60 -76 -235 13 -417 68
-140 203 -263 350 -322 120 -48 85 -47 2092 -47 l1889 0 24 24 c12 13 23 29
23 37 0 9 15 14 48 16 26 1 73 9 104 17 55 14 59 13 78 -6 38 -38 96 -19 195
63 92 77 160 170 198 274 79 214 53 358 -69 389 -16 4 -90 8 -164 8 l-135 1
-5 1300 c-6 1434 0 1325 -67 1386 -65 61 -78 64 -325 66 -244 2 -244 1 -274
-52 -10 -18 -23 -20 -112 -22 l-100 -2 -12 29 c-8 19 -23 33 -44 39 -35 11
-3122 12 -3171 1z"/>
</g>
</svg>
